<?xml version="1.0" encoding="utf-8"?>
<!-- Generator: Adobe Illustrator 24.1.2, SVG Export Plug-In . SVG Version: 6.00 Build 0)  -->
<svg version="1.1" id="Layer_1" focusable="false" xmlns="http://www.w3.org/2000/svg" xmlns:xlink="http://www.w3.org/1999/xlink"
	 x="0px" y="0px" viewBox="0 0 500 500" style="enable-background:new 0 0 500 500;" xml:space="preserve">
<style type="text/css">
	.st0{fill:#F87171 ;}
</style>
<path class="st0" d="M424.2,299.8c0,0-49.8,72.1-49.8,99.6s22.3,49.8,49.8,49.8c27.5,0,49.8-22.3,49.8-49.8S424.2,299.8,424.2,299.8
	z M416.9,219.7L255.4,58.2c-4.9-4.9-11.2-7.3-17.6-7.3c-6.4,0-12.7,2.4-17.6,7.3l-63.5,63.5l-67-67c-4.9-4.9-12.7-4.9-17.6,0
	L54.5,72.2c-4.9,4.9-4.9,12.7,0,17.6l67,67l-73.7,73.7c-29.2,29.2-29.2,76.4,0,105.6l91.1,91.1c14.6,14.6,33.7,21.9,52.8,21.9
	c19.1,0,38.2-7.3,52.8-21.9l172.3-172.3C426.6,245.2,426.6,229.4,416.9,219.7z M326.5,274.9H77.3c1.1-3,2.8-6.2,5.8-9.2l10.2-10.2
	l63.5-63.5l45.6,45.6c9.7,9.7,25.5,9.7,35.2,0c9.7-9.7,9.7-25.5,0-35.2l-45.6-45.6l45.8-45.8l126.3,126.3L326.5,274.9L326.5,274.9z"
	/>
</svg>
